# xmcd
#
# Track frame offsets:
#	150
#	17577
#	31340
#	45847
#	73492
#	90350
#	112415
#	130082
#	149837
#	166755
#	188285
#	208477
#	224515
#	242137
#	259007
#	279195
#
# Disc length: 3992 seconds
#
# Revision: 3
# Processed by: cddbd v1.5.2PL0 Copyright (c) Steve Scherf et al.
# Submitted via: EZCDAudioConverter 9.0.5.1
#
DISCID=eb0f9610
DTITLE=甲斐バンド - Best Selection (BSCD-0039) DE-Magnetic (EZ 9.0-WAV)
DYEAR=2003
DGENRE=Indie - Alternative
TTITLE0=HERO (ヒーローになる時、それは今)
TTITLE1=バス通り
TTITLE2=裏切りの街角
TTITLE3=ナイト・ウェイブ
TTITLE4=フェアリー (完全犯罪)
TTITLE5=BLUE LETTER
TTITLE6=きんぽうげ
TTITLE7=感触 (タッチ)
TTITLE8=氷のくちびる
TTITLE9=翼あるもの
TTITLE10=ビューティフル・エネルギー
TTITLE11=ポップコーンをほおばって
TTITLE12=シーズン
TTITLE13=漂泊者 (アウトロー)
TTITLE14=破れたハートを売り物に
TTITLE15=安奈
EXTD=
EXTT0=
EXTT1=
EXTT2=
EXTT3=
EXTT4=
EXTT5=
EXTT6=
EXTT7=
EXTT8=
EXTT9=
EXTT10=
EXTT11=
EXTT12=
EXTT13=
EXTT14=
EXTT15=
PLAYORDER=
